<?xml version="1.0" encoding="UTF-8" standalone="no"?>
<!-- Created with Inkscape (http://www.inkscape.org/) -->

<svg
   width="282.22226mm"
   height="282.22226mm"
   viewBox="0 0 282.22226 282.22226"
   version="1.1"
   id="svg5"
   xml:space="preserve"
   xmlns:inkscape="http://www.inkscape.org/namespaces/inkscape"
   xmlns:sodipodi="http://sodipodi.sourceforge.net/DTD/sodipodi-0.dtd"
   xmlns="http://www.w3.org/2000/svg"
   xmlns:svg="http://www.w3.org/2000/svg"><sodipodi:namedview
     id="namedview7"
     pagecolor="#505050"
     bordercolor="#eeeeee"
     borderopacity="1"
     inkscape:showpageshadow="0"
     inkscape:pageopacity="0"
     inkscape:pagecheckerboard="0"
     inkscape:deskcolor="#505050"
     inkscape:document-units="mm"
     showgrid="false" /><defs
     id="defs2"><clipPath
       clipPathUnits="userSpaceOnUse"
       id="clipPath27"><path
         d="M 0,800 H 800 V 0 H 0 Z"
         id="path25" /></clipPath></defs><g
     id="g23"
     clip-path="url(#clipPath27)"
     transform="matrix(0.35277777,0,0,-0.35277777,49.395125,262.08665)"><g
       id="g125"
       transform="translate(388.2812,435.1826)"><path
         d="m 0,0 c 0,0 28.739,-7.594 64.703,13.478 0,0 6.371,0.195 3.242,-6.493 -2.655,-3.568 -37.752,-25.208 -68.381,-15.76 0,0 -4.427,1.348 -4.891,5.397 C -5.8,0.676 0,0 0,0"
         style="fill:#00181d;fill-opacity:1;fill-rule:nonzero;stroke:none"
         id="path127" /></g><g
       id="g129"
       transform="translate(414.2998,441.3491)"><path
         d="m 0,0 0.077,0.014 c 0.852,0.106 2.277,0.301 4.143,0.635 12.92,2.286 44.109,10.356 54.899,35.973 10.9,25.902 -4.497,61.316 -12.761,80.343 -2.178,5.002 -3.893,8.957 -4.7,11.645 -2.065,6.898 -7.245,17.589 -15.587,26.9 -10.394,11.596 -22.756,18.005 -36.722,19.047 l -0.049,0.005 c -6.459,0.694 -11.872,0.118 -15.274,-0.485 -2.045,-0.359 -3.547,-0.756 -4.451,-1.029 l -0.163,-0.047 -0.179,-0.012 c -0.937,-0.055 -2.485,-0.199 -4.529,-0.56 -3.41,-0.602 -8.692,-1.916 -14.508,-4.782 l -0.05,-0.02 c -12.772,-5.771 -22.176,-16.029 -27.964,-30.49 -4.644,-11.604 -5.845,-23.424 -5.421,-30.611 0.167,-2.802 -0.094,-7.107 -0.416,-12.554 -1.246,-20.705 -3.56,-59.254 15.567,-79.845 18.911,-20.365 50.985,-17.251 63.897,-14.964 1.87,0.328 3.27,0.629 4.118,0.829 z"
         style="fill:#ffffff;fill-opacity:1;fill-rule:nonzero;stroke:none"
         id="path131" /></g><g
       id="g133"
       transform="translate(414.2998,441.3491)"><path
         d="m 0,0 0.077,0.014 c 0.852,0.106 2.277,0.301 4.143,0.635 12.92,2.286 44.109,10.356 54.899,35.973 10.9,25.902 -4.497,61.316 -12.761,80.343 -2.178,5.002 -3.893,8.957 -4.7,11.645 -2.065,6.898 -7.245,17.589 -15.587,26.9 -10.394,11.596 -22.756,18.005 -36.722,19.047 l -0.049,0.005 c -6.459,0.694 -11.872,0.118 -15.274,-0.485 -2.045,-0.359 -3.547,-0.756 -4.451,-1.029 l -0.163,-0.047 -0.179,-0.012 c -0.937,-0.055 -2.485,-0.199 -4.529,-0.56 -3.41,-0.602 -8.692,-1.916 -14.508,-4.782 l -0.05,-0.02 c -12.772,-5.771 -22.176,-16.029 -27.964,-30.49 -4.644,-11.604 -5.845,-23.424 -5.421,-30.611 0.167,-2.802 -0.094,-7.107 -0.416,-12.554 -1.246,-20.705 -3.56,-59.254 15.567,-79.845 18.911,-20.365 50.985,-17.251 63.897,-14.964 1.87,0.328 3.27,0.629 4.118,0.829 z m 4.745,-2.293 v 0 C 2.863,-2.627 1.421,-2.827 0.521,-2.943 -0.362,-3.145 -1.792,-3.446 -3.674,-3.78 -9.588,-4.827 -21.407,-6.356 -34.091,-4.806 -49.421,-2.935 -61.6,2.751 -70.283,12.099 -78.967,21.45 -84.413,35.3 -86.47,53.266 c -1.726,15.05 -0.826,29.984 -0.17,40.885 0.326,5.349 0.578,9.573 0.414,12.203 -0.439,7.508 0.807,19.831 5.634,31.899 5.995,14.974 16.191,26.071 29.484,32.091 6.134,3.006 11.702,4.397 15.287,5.032 2.064,0.365 3.674,0.517 4.703,0.586 0.994,0.294 2.558,0.699 4.623,1.061 3.593,0.636 9.303,1.239 16.084,0.516 14.553,-1.096 27.941,-8.022 38.706,-20.035 8.671,-9.68 14.067,-20.827 16.226,-28.039 0.75,-2.517 2.441,-6.4 4.57,-11.314 C 53.45,108.135 59.421,94.417 62.968,79.689 67.188,62.104 66.821,47.228 61.872,35.461 56.924,23.699 47.434,14.188 33.675,7.174 22.292,1.369 10.659,-1.25 4.745,-2.293"
         style="fill:#00181d;fill-opacity:1;fill-rule:nonzero;stroke:none"
         id="path135" /></g><g
       id="g137"
       transform="translate(367.3145,547.4805)"><path
         d="m 0,0 c 0.643,-3.678 -1.964,-7.207 -5.824,-7.892 -3.87,-0.682 -7.52,1.74 -8.18,5.418 -0.642,3.674 1.959,7.207 5.824,7.891 C -4.314,6.102 -0.652,3.674 0,0"
         style="fill:#00181d;fill-opacity:1;fill-rule:nonzero;stroke:none"
         id="path139" /></g><g
       id="g141"
       transform="translate(414.0723,516.9492)"><path
         d="m 0,0 c -9.715,0.593 -23.485,-4.15 -28.414,-8.867 0,0 -4.757,-3.533 -1.641,-10.288 3.108,-6.755 10.969,-14.208 24.678,-15.626 0.355,0.047 0.721,0.108 1.1,0.179 l 7.693,-41.896 2.48,0.434 -7.734,42.094 C 5.404,-31.651 14.271,-25 16.084,-14.835 18.205,-2.93 9.717,-0.584 0,0"
         style="fill:#00181d;fill-opacity:1;fill-rule:nonzero;stroke:none"
         id="path143" /></g><g
       id="g145"
       transform="translate(401.5234,508.1968)"><path
         d="m 0,0 c 0.451,-1.725 -1.219,-3.646 -3.715,-4.301 -2.501,-0.65 -4.896,0.212 -5.34,1.928 -0.457,1.727 1.209,3.644 3.711,4.299 C -2.844,2.584 -0.453,1.717 0,0"
         style="fill:#ffffff;fill-opacity:1;fill-rule:nonzero;stroke:none"
         id="path147" /></g><g
       id="g149"
       transform="translate(345.1074,596.3257)"><path
         d="m 0,0 c 0,0 -35.108,22.619 -54.496,20.709 -19.387,-1.912 -34.041,-34.851 -34.123,-64.449 -0.073,-29.6 15.64,-54.134 31.953,-39.111 16.312,15.026 18.674,61.718 17.537,76.69 9.52,6.234 30.772,-6.697 30.772,-6.697 z"
         style="fill:#00181d;fill-opacity:1;fill-rule:nonzero;stroke:none"
         id="path151" /></g><g
       id="g153"
       transform="translate(426.7588,610.7622)"><path
         d="M 0,0 C 0,0 25.208,33.287 44.086,38.139 62.948,42.995 88.013,17.08 98.231,-10.7 108.455,-38.477 102.105,-66.911 81.635,-58.392 61.164,-49.875 42.929,-6.822 38.856,7.629 27.778,10.223 12.251,-9.211 12.251,-9.211 Z"
         style="fill:#00181d;fill-opacity:1;fill-rule:nonzero;stroke:none"
         id="path155" /></g><g
       id="g157"
       transform="translate(411.9375,544.4155)"><path
         d="m 0,0 c 18.002,-7.435 35.187,-5.912 55.132,1.405 0.505,0.564 0.929,1.22 1.3,1.968 -1.744,4.276 -3.452,8.219 -4.979,11.711 -2.129,4.915 -3.82,8.798 -4.569,11.315 C 44.725,33.61 39.328,44.758 30.657,54.438 19.893,66.451 6.504,73.376 -8.049,74.472 c -6.781,0.723 -12.491,0.12 -16.084,-0.515 -2.064,-0.362 -3.629,-0.768 -4.623,-1.061 -1.029,-0.069 -2.639,-0.222 -4.703,-0.586 -0.307,-0.056 -0.636,-0.119 -0.975,-0.184 -0.545,-0.364 -1.09,-0.739 -1.64,-1.124 0,0 3.742,-55.474 36.074,-71.002"
         style="fill:#00181d;fill-opacity:1;fill-rule:nonzero;stroke:none"
         id="path159" /></g><g
       id="g161"
       transform="translate(435.4512,559.5264)"><path
         d="m 0,0 c 0.646,-3.674 -1.968,-7.205 -5.829,-7.892 -3.865,-0.682 -7.523,1.742 -8.179,5.42 -0.647,3.674 1.959,7.205 5.828,7.889 C -4.318,6.104 -0.652,3.678 0,0"
         style="fill:#ffffff;fill-opacity:1;fill-rule:nonzero;stroke:none"
         id="path163" /></g><g
       id="g165"
       transform="translate(427.7607,424.3828)"><path
         d="M 0,0 1.063,-6.001 C 1.356,-7.637 0.257,-9.205 -1.389,-9.5 l -0.493,-0.085 c -1.644,-0.29 -3.209,0.808 -3.506,2.443 l -1.059,6.002 c -4.623,-2.258 -7.397,-7.374 -6.456,-12.698 1.136,-6.435 7.287,-10.74 13.722,-9.599 6.444,1.138 10.737,7.286 9.604,13.723 C 9.478,-4.398 5.12,-0.538 0,0"
         style="fill:#00181d;fill-opacity:1;fill-rule:nonzero;stroke:none"
         id="path167" /></g></g></svg>
