<svg viewBox="0 0 200 200" xmlns="http://www.w3.org/2000/svg">
 <defs>
 <clipPath id="clipPath1">
  <path fill="#08BDBA" d="M41.6,-73.9C51.9,-66.1,56.8,-50.8,62.5,-37.3C68.3,-23.7,74.8,-11.9,75.9,0.6C76.9,13.1,72.4,26.2,64.8,36.5C57.2,46.8,46.5,54.4,35.2,61.1C23.9,67.7,11.9,73.3,-1.5,76C-15,78.6,-30.1,78.4,-39.7,70.8C-49.2,63.2,-53.3,48.2,-62,35.1C-70.6,22.1,-83.9,11.1,-87.4,-2C-90.9,-15.1,-84.6,-30.2,-74,-39.7C-63.3,-49.3,-48.2,-53.3,-35.2,-59.6C-22.1,-65.8,-11,-74.3,2.3,-78.3C15.7,-82.3,31.3,-81.8,41.6,-73.9Z" transform="translate(100 100)" />
 </clipPath>
 </defs>
</svg>